<svg width="853" height="197" viewBox="0 0 853 197" fill="none" xmlns="http://www.w3.org/2000/svg">
<g filter="url(#filter0_d_1176_33299)">
<rect x="4" width="845" height="189" rx="40" fill="url(#paint0_linear_1176_33299)"/>
</g>
<path d="M586 35.5H282C271.23 35.5 262.5 44.2304 262.5 55V130C262.5 140.77 271.23 149.5 282 149.5H586C596.77 149.5 605.5 140.77 605.5 130V55C605.5 44.2305 596.77 35.5 586 35.5Z" stroke="white"/>
<path d="M295.874 108.727V87.7273H298.141V90.1534H298.42C298.592 89.8883 298.831 89.5502 299.136 89.1392C299.447 88.7216 299.891 88.3504 300.468 88.0256C301.051 87.6941 301.84 87.5284 302.835 87.5284C304.121 87.5284 305.254 87.8499 306.235 88.4929C307.216 89.1359 307.982 90.0473 308.532 91.2273C309.082 92.4072 309.357 93.7992 309.357 95.4034C309.357 97.0208 309.082 98.4228 308.532 99.6094C307.982 100.789 307.219 101.704 306.245 102.354C305.271 102.997 304.147 103.318 302.874 103.318C301.893 103.318 301.108 103.156 300.518 102.831C299.928 102.5 299.474 102.125 299.156 101.707C298.837 101.283 298.592 100.932 298.42 100.653H298.221V108.727H295.874ZM298.181 95.3636C298.181 96.517 298.35 97.5346 298.688 98.4162C299.026 99.2912 299.52 99.9773 300.17 100.474C300.819 100.965 301.615 101.21 302.556 101.21C303.537 101.21 304.356 100.952 305.012 100.435C305.675 99.911 306.172 99.2083 306.504 98.3267C306.842 97.4384 307.011 96.4508 307.011 95.3636C307.011 94.2898 306.845 93.322 306.513 92.4602C306.189 91.5919 305.695 90.9058 305.032 90.402C304.376 89.8916 303.55 89.6364 302.556 89.6364C301.602 89.6364 300.799 89.8783 300.15 90.3622C299.5 90.8395 299.01 91.509 298.678 92.3707C298.347 93.2259 298.181 94.2235 298.181 95.3636ZM315.283 82.6364V103H312.937V82.6364H315.283ZM329.206 96.7557V87.7273H331.553V103H329.206V100.415H329.047C328.689 101.19 328.132 101.85 327.377 102.393C326.621 102.93 325.667 103.199 324.513 103.199C323.559 103.199 322.71 102.99 321.968 102.572C321.225 102.148 320.642 101.512 320.218 100.663C319.793 99.8082 319.581 98.7311 319.581 97.4318V87.7273H321.928V97.2727C321.928 98.3864 322.239 99.2746 322.863 99.9375C323.492 100.6 324.294 100.932 325.269 100.932C325.852 100.932 326.445 100.783 327.049 100.484C327.658 100.186 328.169 99.7287 328.58 99.1122C328.998 98.4957 329.206 97.7102 329.206 96.7557ZM342.016 109.045C340.882 109.045 339.908 108.9 339.092 108.608C338.277 108.323 337.598 107.945 337.054 107.474C336.517 107.01 336.089 106.513 335.771 105.983L337.641 104.67C337.853 104.949 338.121 105.267 338.446 105.625C338.771 105.99 339.215 106.304 339.778 106.57C340.348 106.841 341.094 106.977 342.016 106.977C343.249 106.977 344.266 106.679 345.068 106.082C345.87 105.486 346.271 104.551 346.271 103.278V100.176H346.072C345.9 100.455 345.655 100.799 345.337 101.21C345.025 101.615 344.574 101.976 343.984 102.294C343.401 102.606 342.612 102.761 341.618 102.761C340.385 102.761 339.278 102.47 338.297 101.886C337.322 101.303 336.55 100.455 335.98 99.3409C335.417 98.2273 335.135 96.875 335.135 95.2841C335.135 93.7197 335.41 92.3575 335.96 91.1974C336.51 90.0308 337.276 89.1293 338.257 88.4929C339.238 87.8499 340.372 87.5284 341.658 87.5284C342.652 87.5284 343.441 87.6941 344.024 88.0256C344.614 88.3504 345.065 88.7216 345.376 89.1392C345.695 89.5502 345.94 89.8883 346.112 90.1534H346.351V87.7273H348.618V103.438C348.618 104.75 348.32 105.817 347.723 106.639C347.133 107.468 346.338 108.074 345.337 108.459C344.342 108.85 343.235 109.045 342.016 109.045ZM341.936 100.653C342.877 100.653 343.673 100.438 344.322 100.007C344.972 99.5762 345.466 98.9564 345.804 98.1477C346.142 97.339 346.311 96.3712 346.311 95.2443C346.311 94.1439 346.145 93.1728 345.814 92.331C345.482 91.4891 344.992 90.8295 344.342 90.3523C343.693 89.875 342.891 89.6364 341.936 89.6364C340.942 89.6364 340.113 89.8883 339.45 90.392C338.794 90.8958 338.3 91.572 337.969 92.4205C337.644 93.2689 337.482 94.2102 337.482 95.2443C337.482 96.3049 337.647 97.2429 337.979 98.0582C338.317 98.867 338.814 99.5033 339.47 99.9673C340.133 100.425 340.955 100.653 341.936 100.653ZM352.913 103V87.7273H355.26V103H352.913ZM354.107 85.1818C353.649 85.1818 353.255 85.026 352.923 84.7145C352.598 84.4029 352.436 84.0284 352.436 83.5909C352.436 83.1534 352.598 82.7789 352.923 82.4673C353.255 82.1558 353.649 82 354.107 82C354.564 82 354.955 82.1558 355.28 82.4673C355.611 82.7789 355.777 83.1534 355.777 83.5909C355.777 84.0284 355.611 84.4029 355.28 84.7145C354.955 85.026 354.564 85.1818 354.107 85.1818ZM361.904 93.8125V103H359.558V87.7273H361.825V90.1136H362.024C362.382 89.3381 362.925 88.715 363.654 88.2443C364.384 87.767 365.325 87.5284 366.478 87.5284C367.512 87.5284 368.417 87.7405 369.193 88.1648C369.968 88.5824 370.572 89.2188 371.002 90.0739C371.433 90.9223 371.649 91.9962 371.649 93.2955V103H369.302V93.4545C369.302 92.2547 368.991 91.3201 368.368 90.6506C367.744 89.9744 366.889 89.6364 365.802 89.6364C365.053 89.6364 364.384 89.7988 363.794 90.1236C363.21 90.4484 362.75 90.9223 362.412 91.5455C362.074 92.1686 361.904 92.9242 361.904 93.8125ZM377.647 103.159C377.156 103.159 376.736 102.983 376.384 102.632C376.033 102.281 375.857 101.86 375.857 101.369C375.857 100.879 376.033 100.458 376.384 100.107C376.736 99.7552 377.156 99.5795 377.647 99.5795C378.138 99.5795 378.558 99.7552 378.91 100.107C379.261 100.458 379.437 100.879 379.437 101.369C379.437 101.694 379.354 101.992 379.188 102.264C379.029 102.536 378.814 102.755 378.542 102.92C378.277 103.08 377.978 103.159 377.647 103.159ZM377.647 91.8239C377.156 91.8239 376.736 91.6482 376.384 91.2969C376.033 90.9455 375.857 90.5246 375.857 90.0341C375.857 89.5436 376.033 89.1226 376.384 88.7713C376.736 88.42 377.156 88.2443 377.647 88.2443C378.138 88.2443 378.558 88.42 378.91 88.7713C379.261 89.1226 379.437 89.5436 379.437 90.0341C379.437 90.3589 379.354 90.6572 379.188 90.929C379.029 91.2008 378.814 91.4195 378.542 91.5852C378.277 91.7443 377.978 91.8239 377.647 91.8239ZM391.523 103V87.7273H393.79V90.1136H393.989C394.307 89.2983 394.821 88.6652 395.53 88.2145C396.239 87.7571 397.091 87.5284 398.085 87.5284C399.093 87.5284 399.931 87.7571 400.601 88.2145C401.277 88.6652 401.804 89.2983 402.182 90.1136H402.341C402.732 89.3248 403.319 88.6984 404.101 88.2344C404.883 87.7637 405.821 87.5284 406.915 87.5284C408.28 87.5284 409.397 87.956 410.266 88.8111C411.134 89.6596 411.568 90.982 411.568 92.7784V103H409.222V92.7784C409.222 91.6515 408.913 90.8461 408.297 90.3622C407.68 89.8783 406.955 89.6364 406.119 89.6364C405.045 89.6364 404.214 89.9612 403.624 90.6108C403.034 91.2538 402.739 92.0691 402.739 93.0568V103H400.352V92.5398C400.352 91.6714 400.071 90.9721 399.507 90.4418C398.944 89.9048 398.218 89.6364 397.33 89.6364C396.72 89.6364 396.15 89.7988 395.619 90.1236C395.096 90.4484 394.671 90.8991 394.347 91.4759C394.028 92.0459 393.869 92.7055 393.869 93.4545V103H391.523ZM422.063 103.318C420.684 103.318 419.475 102.99 418.434 102.334C417.4 101.678 416.591 100.759 416.008 99.5795C415.431 98.3996 415.143 97.0208 415.143 95.4432C415.143 93.8523 415.431 92.4635 416.008 91.277C416.591 90.0904 417.4 89.169 418.434 88.5128C419.475 87.8565 420.684 87.5284 422.063 87.5284C423.442 87.5284 424.648 87.8565 425.683 88.5128C426.723 89.169 427.532 90.0904 428.109 91.277C428.692 92.4635 428.984 93.8523 428.984 95.4432C428.984 97.0208 428.692 98.3996 428.109 99.5795C427.532 100.759 426.723 101.678 425.683 102.334C424.648 102.99 423.442 103.318 422.063 103.318ZM422.063 101.21C423.111 101.21 423.972 100.942 424.648 100.405C425.325 99.8679 425.825 99.1619 426.15 98.2869C426.475 97.4119 426.637 96.464 426.637 95.4432C426.637 94.4223 426.475 93.4711 426.15 92.5895C425.825 91.7079 425.325 90.9953 424.648 90.4517C423.972 89.9081 423.111 89.6364 422.063 89.6364C421.016 89.6364 420.154 89.9081 419.478 90.4517C418.802 90.9953 418.301 91.7079 417.977 92.5895C417.652 93.4711 417.489 94.4223 417.489 95.4432C417.489 96.464 417.652 97.4119 417.977 98.2869C418.301 99.1619 418.802 99.8679 419.478 100.405C420.154 100.942 421.016 101.21 422.063 101.21ZM434.912 82.6364V103H432.566V82.6364H434.912ZM446.011 87.7273V89.7159H437.778V87.7273H446.011ZM440.244 103V85.6193C440.244 84.7443 440.45 84.0152 440.861 83.4318C441.272 82.8485 441.805 82.411 442.462 82.1193C443.118 81.8277 443.811 81.6818 444.54 81.6818C445.116 81.6818 445.587 81.7282 445.952 81.821C446.316 81.9138 446.588 82 446.767 82.0795L446.091 84.108C445.972 84.0682 445.806 84.0185 445.594 83.9588C445.388 83.8991 445.116 83.8693 444.778 83.8693C444.003 83.8693 443.443 84.0649 443.098 84.456C442.76 84.8471 442.591 85.4205 442.591 86.1761V103H440.244ZM455.075 103.318C453.603 103.318 452.334 102.993 451.266 102.344C450.206 101.688 449.387 100.773 448.81 99.5994C448.24 98.4195 447.955 97.0473 447.955 95.483C447.955 93.9186 448.24 92.5398 448.81 91.3466C449.387 90.1468 450.189 89.2121 451.217 88.5426C452.251 87.8665 453.457 87.5284 454.836 87.5284C455.631 87.5284 456.417 87.661 457.192 87.9261C457.968 88.1913 458.674 88.6222 459.31 89.2188C459.947 89.8087 460.454 90.5909 460.832 91.5653C461.21 92.5398 461.398 93.7396 461.398 95.1648V96.1591H449.626V94.1307H459.012C459.012 93.2689 458.84 92.5 458.495 91.8239C458.157 91.1477 457.673 90.6141 457.043 90.223C456.42 89.8319 455.684 89.6364 454.836 89.6364C453.901 89.6364 453.093 89.8684 452.41 90.3324C451.734 90.7898 451.213 91.3864 450.849 92.1222C450.484 92.858 450.302 93.6468 450.302 94.4886V95.8409C450.302 96.9943 450.501 97.9721 450.898 98.7741C451.303 99.5696 451.863 100.176 452.579 100.594C453.295 101.005 454.127 101.21 455.075 101.21C455.691 101.21 456.248 101.124 456.745 100.952C457.249 100.773 457.683 100.508 458.048 100.156C458.412 99.7983 458.694 99.3542 458.893 98.8239L461.16 99.4602C460.921 100.229 460.52 100.905 459.957 101.489C459.393 102.065 458.697 102.516 457.869 102.841C457.04 103.159 456.109 103.318 455.075 103.318ZM469.462 103.358C468.495 103.358 467.616 103.176 466.827 102.811C466.039 102.44 465.412 101.906 464.948 101.21C464.484 100.508 464.252 99.6591 464.252 98.6648C464.252 97.7898 464.424 97.0805 464.769 96.5369C465.114 95.9867 465.575 95.5559 466.151 95.2443C466.728 94.9328 467.364 94.7008 468.06 94.5483C468.763 94.3892 469.469 94.2633 470.178 94.1705C471.106 94.0511 471.859 93.9616 472.435 93.902C473.019 93.8357 473.443 93.7263 473.708 93.5739C473.98 93.4214 474.116 93.1562 474.116 92.7784V92.6989C474.116 91.7178 473.847 90.9555 473.31 90.4119C472.78 89.8684 471.975 89.5966 470.894 89.5966C469.774 89.5966 468.896 89.8419 468.259 90.3324C467.623 90.8229 467.175 91.3466 466.917 91.9034L464.69 91.108C465.087 90.1799 465.618 89.4574 466.281 88.9403C466.95 88.4167 467.679 88.0521 468.468 87.8466C469.263 87.6345 470.046 87.5284 470.815 87.5284C471.305 87.5284 471.869 87.5881 472.505 87.7074C473.148 87.8201 473.768 88.0554 474.364 88.4134C474.968 88.7713 475.468 89.3116 475.866 90.0341C476.263 90.7566 476.462 91.7244 476.462 92.9375V103H474.116V100.932H473.996C473.837 101.263 473.572 101.618 473.201 101.996C472.83 102.374 472.336 102.695 471.719 102.96C471.103 103.225 470.351 103.358 469.462 103.358ZM469.82 101.25C470.748 101.25 471.531 101.068 472.167 100.703C472.81 100.339 473.294 99.8679 473.619 99.2912C473.95 98.7145 474.116 98.108 474.116 97.4716V95.3239C474.016 95.4432 473.798 95.5526 473.46 95.652C473.128 95.7448 472.744 95.8277 472.306 95.9006C471.875 95.9669 471.454 96.0265 471.043 96.0795C470.639 96.1259 470.311 96.1657 470.059 96.1989C469.449 96.2784 468.879 96.4077 468.349 96.5866C467.825 96.759 467.401 97.0208 467.076 97.3722C466.758 97.7169 466.599 98.1875 466.599 98.7841C466.599 99.5994 466.9 100.216 467.504 100.634C468.113 101.045 468.886 101.25 469.82 101.25ZM487.387 87.7273V89.7159H479.473V87.7273H487.387ZM481.779 84.0682H484.126V98.625C484.126 99.2879 484.222 99.785 484.414 100.116C484.613 100.441 484.865 100.66 485.17 100.773C485.482 100.879 485.81 100.932 486.154 100.932C486.413 100.932 486.625 100.919 486.791 100.892C486.957 100.859 487.089 100.832 487.189 100.812L487.666 102.92C487.507 102.98 487.285 103.04 487 103.099C486.715 103.166 486.353 103.199 485.916 103.199C485.253 103.199 484.603 103.056 483.967 102.771C483.337 102.486 482.814 102.052 482.396 101.469C481.985 100.885 481.779 100.15 481.779 99.2614V84.0682ZM499.12 93.1761V95.3636H490.211V93.1761H499.12ZM503.249 108.727V87.7273H505.516V90.1534H505.795C505.967 89.8883 506.206 89.5502 506.511 89.1392C506.822 88.7216 507.266 88.3504 507.843 88.0256C508.426 87.6941 509.215 87.5284 510.21 87.5284C511.496 87.5284 512.629 87.8499 513.61 88.4929C514.591 89.1359 515.357 90.0473 515.907 91.2273C516.457 92.4072 516.732 93.7992 516.732 95.4034C516.732 97.0208 516.457 98.4228 515.907 99.6094C515.357 100.789 514.594 101.704 513.62 102.354C512.646 102.997 511.522 103.318 510.249 103.318C509.268 103.318 508.483 103.156 507.893 102.831C507.303 102.5 506.849 102.125 506.531 101.707C506.212 101.283 505.967 100.932 505.795 100.653H505.596V108.727H503.249ZM505.556 95.3636C505.556 96.517 505.725 97.5346 506.063 98.4162C506.401 99.2912 506.895 99.9773 507.545 100.474C508.194 100.965 508.99 101.21 509.931 101.21C510.912 101.21 511.731 100.952 512.387 100.435C513.05 99.911 513.547 99.2083 513.879 98.3267C514.217 97.4384 514.386 96.4508 514.386 95.3636C514.386 94.2898 514.22 93.322 513.888 92.4602C513.564 91.5919 513.07 90.9058 512.407 90.402C511.751 89.8916 510.925 89.6364 509.931 89.6364C508.977 89.6364 508.174 89.8783 507.525 90.3622C506.875 90.8395 506.385 91.509 506.053 92.3707C505.722 93.2259 505.556 94.2235 505.556 95.3636ZM524.806 103.358C523.838 103.358 522.96 103.176 522.171 102.811C521.382 102.44 520.756 101.906 520.292 101.21C519.828 100.508 519.596 99.6591 519.596 98.6648C519.596 97.7898 519.768 97.0805 520.113 96.5369C520.458 95.9867 520.918 95.5559 521.495 95.2443C522.072 94.9328 522.708 94.7008 523.404 94.5483C524.107 94.3892 524.813 94.2633 525.522 94.1705C526.45 94.0511 527.202 93.9616 527.779 93.902C528.362 93.8357 528.787 93.7263 529.052 93.5739C529.324 93.4214 529.46 93.1562 529.46 92.7784V92.6989C529.46 91.7178 529.191 90.9555 528.654 90.4119C528.124 89.8684 527.318 89.5966 526.238 89.5966C525.118 89.5966 524.239 89.8419 523.603 90.3324C522.967 90.8229 522.519 91.3466 522.261 91.9034L520.033 91.108C520.431 90.1799 520.961 89.4574 521.624 88.9403C522.294 88.4167 523.023 88.0521 523.812 87.8466C524.607 87.6345 525.389 87.5284 526.158 87.5284C526.649 87.5284 527.212 87.5881 527.849 87.7074C528.492 87.8201 529.112 88.0554 529.708 88.4134C530.311 88.7713 530.812 89.3116 531.21 90.0341C531.607 90.7566 531.806 91.7244 531.806 92.9375V103H529.46V100.932H529.34C529.181 101.263 528.916 101.618 528.545 101.996C528.174 102.374 527.68 102.695 527.063 102.96C526.447 103.225 525.694 103.358 524.806 103.358ZM525.164 101.25C526.092 101.25 526.874 101.068 527.511 100.703C528.154 100.339 528.638 99.8679 528.962 99.2912C529.294 98.7145 529.46 98.108 529.46 97.4716V95.3239C529.36 95.4432 529.141 95.5526 528.803 95.652C528.472 95.7448 528.087 95.8277 527.65 95.9006C527.219 95.9669 526.798 96.0265 526.387 96.0795C525.983 96.1259 525.655 96.1657 525.403 96.1989C524.793 96.2784 524.223 96.4077 523.692 96.5866C523.169 96.759 522.745 97.0208 522.42 97.3722C522.102 97.7169 521.942 98.1875 521.942 98.7841C521.942 99.5994 522.244 100.216 522.847 100.634C523.457 101.045 524.229 101.25 525.164 101.25ZM541.856 103.318C540.583 103.318 539.46 102.997 538.485 102.354C537.511 101.704 536.749 100.789 536.199 99.6094C535.648 98.4228 535.373 97.0208 535.373 95.4034C535.373 93.7992 535.648 92.4072 536.199 91.2273C536.749 90.0473 537.514 89.1359 538.495 88.4929C539.476 87.8499 540.61 87.5284 541.896 87.5284C542.89 87.5284 543.676 87.6941 544.252 88.0256C544.836 88.3504 545.28 88.7216 545.585 89.1392C545.896 89.5502 546.138 89.8883 546.311 90.1534H546.51V82.6364H548.856V103H546.589V100.653H546.311C546.138 100.932 545.893 101.283 545.575 101.707C545.257 102.125 544.803 102.5 544.213 102.831C543.623 103.156 542.837 103.318 541.856 103.318ZM542.174 101.21C543.116 101.21 543.911 100.965 544.561 100.474C545.21 99.9773 545.704 99.2912 546.042 98.4162C546.38 97.5346 546.549 96.517 546.549 95.3636C546.549 94.2235 546.384 93.2259 546.052 92.3707C545.721 91.509 545.23 90.8395 544.581 90.3622C543.931 89.8783 543.129 89.6364 542.174 89.6364C541.18 89.6364 540.351 89.8916 539.689 90.402C539.032 90.9058 538.538 91.5919 538.207 92.4602C537.882 93.322 537.72 94.2898 537.72 95.3636C537.72 96.4508 537.886 97.4384 538.217 98.3267C538.555 99.2083 539.052 99.911 539.708 100.435C540.371 100.952 541.193 101.21 542.174 101.21ZM559.883 103.318C558.412 103.318 557.142 102.993 556.075 102.344C555.014 101.688 554.196 100.773 553.619 99.5994C553.049 98.4195 552.764 97.0473 552.764 95.483C552.764 93.9186 553.049 92.5398 553.619 91.3466C554.196 90.1468 554.998 89.2121 556.025 88.5426C557.059 87.8665 558.266 87.5284 559.645 87.5284C560.44 87.5284 561.225 87.661 562.001 87.9261C562.777 88.1913 563.483 88.6222 564.119 89.2188C564.755 89.8087 565.262 90.5909 565.64 91.5653C566.018 92.5398 566.207 93.7396 566.207 95.1648V96.1591H554.434V94.1307H563.821C563.821 93.2689 563.648 92.5 563.304 91.8239C562.966 91.1477 562.482 90.6141 561.852 90.223C561.229 89.8319 560.493 89.6364 559.645 89.6364C558.71 89.6364 557.901 89.8684 557.218 90.3324C556.542 90.7898 556.022 91.3864 555.657 92.1222C555.293 92.858 555.11 93.6468 555.11 94.4886V95.8409C555.11 96.9943 555.309 97.9721 555.707 98.7741C556.111 99.5696 556.672 100.176 557.387 100.594C558.103 101.005 558.935 101.21 559.883 101.21C560.5 101.21 561.056 101.124 561.554 100.952C562.057 100.773 562.492 100.508 562.856 100.156C563.221 99.7983 563.502 99.3542 563.701 98.8239L565.968 99.4602C565.73 100.229 565.329 100.905 564.765 101.489C564.202 102.065 563.506 102.516 562.677 102.841C561.849 103.159 560.917 103.318 559.883 103.318ZM572.123 82.6364V103H569.777V82.6364H572.123Z" fill="white"/>
<path d="M689.452 93.3536C689.647 93.1583 689.647 92.8417 689.452 92.6464L686.27 89.4645C686.075 89.2692 685.758 89.2692 685.563 89.4645C685.368 89.6597 685.368 89.9763 685.563 90.1716L688.391 93L685.563 95.8284C685.368 96.0237 685.368 96.3403 685.563 96.5355C685.758 96.7308 686.075 96.7308 686.27 96.5355L689.452 93.3536ZM606 93.5H608.597V92.5H606V93.5ZM613.79 93.5H618.984V92.5H613.79V93.5ZM624.178 93.5H629.371V92.5H624.178V93.5ZM634.565 93.5H639.759V92.5H634.565V93.5ZM644.952 93.5H650.146V92.5H644.952V93.5ZM655.34 93.5H660.533V92.5H655.34V93.5ZM665.727 93.5H670.921V92.5H665.727V93.5ZM676.114 93.5H681.308V92.5H676.114V93.5ZM686.502 93.5H689.098V92.5H686.502V93.5Z" fill="white"/>
<path d="M179 92H262.098" stroke="white" stroke-dasharray="5 5"/>
<path d="M80.3508 125.186L79.3058 107.875L93.7851 98.3027L109.309 106.042L110.354 123.353L95.8745 132.925L80.3508 125.186Z" stroke="white" stroke-width="2"/>
<path d="M111.155 123.17L110.045 106.057L125.988 99.7014L136.95 112.886L127.783 127.39L111.155 123.17Z" stroke="white" stroke-width="2"/>
<line y1="-1" x2="17.7095" y2="-1" transform="matrix(0.114055 -0.993164 0.993881 0.11321 126.76 99.6328)" stroke="white" stroke-width="2"/>
<line y1="-1" x2="17.7089" y2="-1" transform="matrix(-0.060227 -0.997768 0.998553 -0.0610073 94.3516 97.4688)" stroke="white" stroke-width="2"/>
<line y1="-1" x2="17.7089" y2="-1" transform="matrix(0.834534 -0.55171 0.551442 0.833715 128.23 82.8203)" stroke="white" stroke-width="2"/>
<line y1="-1" x2="17.7095" y2="-1" transform="matrix(0.114055 -0.993164 0.993881 0.11321 143.023 72.6953)" stroke="white" stroke-width="2"/>
<line y1="-1" x2="17.7089" y2="-1" transform="matrix(0.834534 -0.55171 0.551442 0.833715 144.496 55.8828)" stroke="white" stroke-width="2"/>
<line y1="-1" x2="17.7051" y2="-1" transform="matrix(-0.803706 -0.59475 0.59559 -0.803493 144.982 55.0781)" stroke="white" stroke-width="2"/>
<rect x="742" y="73" width="11" height="11" fill="#407DAA"/>
<rect x="742" y="73" width="11" height="11" fill="#407DAA"/>
<rect x="742" y="73" width="11" height="11" fill="#61707B"/>
<rect x="742" y="84" width="11" height="10" fill="#407DAA"/>
<rect x="742" y="84" width="11" height="10" fill="#407DAA"/>
<rect x="742" y="84" width="11" height="10" fill="#A6A6A6"/>
<rect x="742" y="94" width="11" height="11" fill="#407DAA"/>
<rect x="742" y="94" width="11" height="11" fill="#407DAA"/>
<rect x="742" y="94" width="11" height="11" fill="#7C7C7C"/>
<rect x="742" y="41" width="11" height="11" fill="#407DAA"/>
<rect x="742" y="41" width="11" height="11" fill="#407DAA"/>
<rect x="742" y="41" width="11" height="11" fill="#7C7C7C"/>
<rect x="742" y="105" width="11" height="10" fill="#407DAA"/>
<rect x="742" y="105" width="11" height="10" fill="#407DAA"/>
<rect x="742" y="105" width="11" height="10" fill="#4B4B4B"/>
<rect x="742" y="115" width="11" height="11" fill="#407DAA"/>
<rect x="742" y="115" width="11" height="11" fill="#407DAA"/>
<rect x="742" y="115" width="11" height="11" fill="#CBCBCB"/>
<rect x="742" y="133" width="11" height="11" fill="#407DAA"/>
<rect x="742" y="133" width="11" height="11" fill="#407DAA"/>
<rect x="742" y="133" width="11" height="11" fill="#212121"/>
<rect x="747" y="127" width="1" height="1" fill="#407DAA"/>
<rect x="747" y="127" width="1" height="1" fill="#407DAA"/>
<rect x="747" y="127" width="1" height="1" fill="white"/>
<rect x="747" y="129" width="1" height="1" fill="#407DAA"/>
<rect x="747" y="129" width="1" height="1" fill="#407DAA"/>
<rect x="747" y="129" width="1" height="1" fill="white"/>
<rect x="747" y="131" width="1" height="1" fill="#407DAA"/>
<rect x="747" y="131" width="1" height="1" fill="#407DAA"/>
<rect x="747" y="131" width="1" height="1" fill="white"/>
<rect x="742" y="62" width="11" height="11" fill="#407DAA"/>
<rect x="742" y="62" width="11" height="11" fill="#407DAA"/>
<rect x="742" y="62" width="11" height="11" fill="#D3D3D3"/>
<rect x="742" y="52" width="11" height="10" fill="#B5B8BA"/>
<defs>
<filter id="filter0_d_1176_33299" x="0" y="0" width="853" height="197" filterUnits="userSpaceOnUse" color-interpolation-filters="sRGB">
<feFlood flood-opacity="0" result="BackgroundImageFix"/>
<feColorMatrix in="SourceAlpha" type="matrix" values="0 0 0 0 0 0 0 0 0 0 0 0 0 0 0 0 0 0 127 0" result="hardAlpha"/>
<feOffset dy="4"/>
<feGaussianBlur stdDeviation="2"/>
<feComposite in2="hardAlpha" operator="out"/>
<feColorMatrix type="matrix" values="0 0 0 0 0 0 0 0 0 0 0 0 0 0 0 0 0 0 0.25 0"/>
<feBlend mode="normal" in2="BackgroundImageFix" result="effect1_dropShadow_1176_33299"/>
<feBlend mode="normal" in="SourceGraphic" in2="effect1_dropShadow_1176_33299" result="shape"/>
</filter>
<linearGradient id="paint0_linear_1176_33299" x1="3.99999" y1="95" x2="1171.5" y2="379.061" gradientUnits="userSpaceOnUse">
<stop stop-color="#082821"/>
<stop offset="1" stop-color="#85C1A5"/>
</linearGradient>
</defs>
</svg>
